<svg version="1.1" id="Layer_1" xmlns="http://www.w3.org/2000/svg" xmlns:xlink="http://www.w3.org/1999/xlink" x="0px" y="0px"
	 width="100%" viewBox="0 0 500 500" enable-background="new 0 0 500 500" xml:space="preserve">
<path fill="none" opacity="1.000000" stroke="none" 
	d="
M275.000000,501.000000 
	C183.333359,501.000000 92.166710,501.000000 1.000049,501.000000 
	C1.000033,334.333405 1.000033,167.666794 1.000016,1.000138 
	C167.666565,1.000092 334.333130,1.000092 500.999756,1.000046 
	C500.999847,167.666519 500.999847,334.333038 500.999939,500.999786 
	C425.833344,501.000000 350.666656,501.000000 275.000000,501.000000 
M154.600082,299.002960 
	C130.769119,299.008728 106.938148,299.014496 82.958755,298.118164 
	C80.669258,269.800995 78.379761,241.483810 76.106506,213.367554 
	C72.815201,213.367554 70.086662,213.367554 67.288345,213.367554 
	C69.995659,247.393433 72.672447,281.035522 75.354744,314.746918 
	C104.814133,314.746918 133.874771,314.746918 163.195374,314.746918 
	C165.897873,280.718445 168.581024,246.933655 171.259308,213.210083 
	C167.953720,213.210083 165.331406,213.210083 162.430115,213.210083 
	C161.944595,219.178085 161.473892,224.954895 161.004776,230.731827 
	C159.158447,253.468338 157.312607,276.204895 154.600082,299.002960 
M133.500061,195.146622 
	C119.897430,195.146622 106.294800,195.146622 92.470688,195.146622 
	C91.733124,186.074692 91.037209,177.515045 90.344582,168.995804 
	C87.239975,168.995804 84.617210,168.995804 81.593742,168.995804 
	C82.202957,177.792374 82.792709,186.307922 83.418861,195.349091 
	C72.913544,195.349091 63.022552,195.349091 53.122971,195.349091 
	C53.122971,198.494949 53.122971,201.140305 53.122971,203.985123 
	C97.142998,203.985123 141.026855,203.985123 185.081299,203.985123 
	C185.081299,201.033463 185.081299,198.279877 185.081299,195.146622 
	C168.059174,195.146622 151.279633,195.146622 133.500061,195.146622 
M400.517273,203.137024 
	C387.019073,185.207153 365.272400,191.647552 357.877808,206.527557 
	C353.379944,215.578583 354.405396,226.738785 361.622009,235.959045 
	C366.975922,242.799454 378.455231,246.021835 387.492737,243.288910 
	C402.998260,238.600098 410.829346,218.988541 400.517273,203.137024 
M292.976501,211.500656 
	C292.974854,220.643097 293.121979,229.789139 292.899597,238.926208 
	C292.808319,242.675964 293.680664,244.173416 297.822693,244.163589 
	C302.035675,244.153564 303.565277,242.817413 303.015533,238.734924 
	C302.817657,237.265686 302.977051,235.747101 302.988525,234.251144 
	C303.050446,226.186478 302.199646,226.783966 310.141174,227.063904 
	C317.035950,227.306931 322.957977,225.867950 327.369934,220.177765 
	C331.679657,214.619461 332.101288,208.682404 329.179352,202.433884 
	C326.432953,196.560837 322.119141,192.920090 315.287567,192.961441 
	C309.469910,192.996643 303.635498,193.225632 297.839447,192.867477 
	C293.675812,192.610214 292.669861,194.269257 292.913147,198.038300 
	C293.180298,202.176727 292.974976,206.345673 292.976501,211.500656 
M249.520096,299.076141 
	C247.899979,303.787628 246.279877,308.499146 244.408112,313.942444 
	C249.365555,313.516724 253.614410,315.961700 255.788040,310.429810 
	C259.497467,300.989319 259.616943,301.036255 269.659210,301.035950 
	C270.324585,301.035919 271.011475,301.144073 271.651855,301.017395 
	C275.765137,300.203705 277.823792,302.307068 278.860229,305.964111 
	C279.222137,307.241119 279.804871,308.468689 280.047943,309.763672 
	C280.678833,313.124268 282.486694,314.570251 285.973480,314.051971 
	C287.678802,313.798462 289.452972,314.008087 292.011200,314.008087 
	C285.678528,297.223663 279.674957,281.259857 273.624847,265.313751 
	C272.194550,261.543915 268.792664,262.925537 266.282196,263.138916 
	C264.806183,263.264343 262.783264,264.900269 262.202148,266.339630 
	C257.918457,276.949890 253.936172,287.681854 249.520096,299.076141 
M246.153122,225.627106 
	C243.996429,231.464691 241.839737,237.302277 239.642792,243.248810 
	C248.591171,245.001328 249.261703,245.064850 251.561493,237.577621 
	C253.361603,231.717117 256.745697,230.218994 262.152557,231.007034 
	C263.292450,231.173157 264.510376,231.211273 265.635406,231.002121 
	C270.850067,230.032669 272.946930,232.755722 274.329987,237.365494 
	C276.544769,244.747162 278.917542,245.663193 286.684662,242.969070 
	C280.751709,227.338516 274.742401,211.741364 268.954742,196.062347 
	C267.787476,192.900146 265.647156,192.911148 263.063477,192.931213 
	C260.520691,192.950989 258.237610,192.756989 257.110657,195.972839 
	C253.711182,205.673355 250.053421,215.283340 246.153122,225.627106 
M207.103073,293.754852 
	C207.049820,291.424622 206.995407,289.094391 206.943542,286.764130 
	C206.791901,279.952789 210.426880,275.335114 216.116928,272.525085 
	C221.848083,269.694794 227.209900,271.305817 231.414200,275.930542 
	C234.674744,279.517120 236.967209,277.211517 239.374069,275.098969 
	C242.334442,272.500549 239.984344,270.440765 238.241623,268.916229 
	C232.370224,263.779938 225.782288,261.627777 217.653641,262.715454 
	C202.825592,264.699554 194.617325,278.967468 196.256668,290.595245 
	C198.505569,306.546509 210.024765,316.489288 225.567139,313.946411 
	C232.627838,312.791260 238.852341,310.012512 242.144379,302.404022 
	C239.484940,300.855621 237.109329,299.472443 235.554214,298.567017 
	C231.412140,300.967194 228.118484,304.123260 224.380112,304.791504 
	C215.642197,306.353363 211.518021,303.393585 207.103073,293.754852 
M207.511810,192.957153 
	C203.558487,192.957153 199.605179,192.957153 195.800049,192.957153 
	C194.002701,201.231644 194.551804,201.936066 202.201096,201.936615 
	C203.200394,201.936691 204.216080,202.052917 205.196152,201.915482 
	C209.595963,201.298538 211.328964,202.745621 211.161835,207.567902 
	C210.787094,218.380539 211.206299,229.218658 210.969711,240.039139 
	C210.878876,244.193085 213.184525,244.053452 216.036987,244.051300 
	C218.881958,244.049149 221.230560,244.209457 221.123795,240.050125 
	C220.880249,230.563110 221.041580,221.065491 221.052109,211.572205 
	C221.064026,200.823334 220.115555,201.977463 230.704712,201.938629 
	C238.407501,201.910370 238.918777,201.288193 237.188538,192.955917 
	C227.727539,192.955917 218.118225,192.955917 207.511810,192.957153 
M317.503632,177.996704 
	C313.509369,177.996582 309.511627,178.097382 305.522095,177.960236 
	C302.931915,177.871201 302.187164,178.913498 301.960327,181.444702 
	C301.574524,185.749557 302.889069,187.152695 307.431641,187.112427 
	C332.892975,186.886688 358.357391,187.010284 383.820740,186.994034 
	C385.420197,186.993011 387.019531,186.817657 388.664978,186.720673 
	C388.664978,183.627731 388.664978,181.071259 388.664978,177.996735 
	C365.022491,177.996735 341.762238,177.996735 317.503632,177.996704 
M371.986389,277.478943 
	C371.986084,276.147095 372.142303,274.793121 371.957764,273.487305 
	C371.252991,268.500916 373.162659,266.596588 378.317596,266.938660 
	C384.450287,267.345612 390.633820,267.138702 396.787872,266.952637 
	C398.147186,266.911530 399.475433,265.842133 400.817963,265.246216 
	C399.475586,264.480499 398.145630,263.077606 396.788818,263.051086 
	C387.030060,262.860443 377.265808,262.949005 366.966003,262.949005 
	C366.966003,278.935516 366.913055,295.042236 367.097992,311.146210 
	C367.109039,312.108978 369.004822,313.851257 370.054962,313.875580 
	C379.372711,314.091309 388.699005,314.073853 398.018341,313.895477 
	C399.018127,313.876343 399.989990,312.394928 400.974792,311.591858 
	C400.027924,310.745941 399.128357,309.242004 398.125885,309.169952 
	C394.150696,308.884186 390.143280,309.042206 386.147827,309.043030 
	C371.187653,309.045990 371.254120,309.049927 371.921204,293.761688 
	C372.041016,291.015137 372.826721,289.886597 375.672913,289.960510 
	C381.329285,290.107513 386.998047,290.138824 392.648529,289.902679 
	C394.082520,289.842743 395.466949,288.597839 396.874176,287.897400 
	C395.517059,286.959808 394.212860,285.320618 392.793060,285.213501 
	C388.157684,284.863708 383.480133,285.072876 378.818817,285.066498 
	C372.003265,285.057159 372.003265,285.056976 371.986389,277.478943 
M347.922363,194.882278 
	C345.107330,194.301804 342.300079,193.481689 339.469116,193.389343 
	C339.024963,193.374863 338.055145,196.659698 338.037903,198.425888 
	C337.912872,211.245972 337.969635,224.067856 337.969330,236.889160 
	C337.969147,244.338028 337.970184,244.351028 345.289642,243.966858 
	C346.067749,243.925995 346.832031,243.621628 347.975952,243.351349 
	C347.975952,227.385315 347.975952,211.595825 347.922363,194.882278 
M335.043457,295.499390 
	C335.042877,299.990875 334.952759,304.484894 335.081665,308.972656 
	C335.141083,311.041016 333.989899,313.956360 337.946686,314.010956 
	C341.872040,314.065063 340.929291,311.219879 340.939514,309.096039 
	C340.998749,296.786316 341.089630,284.474426 340.904297,272.167236 
	C340.845093,268.236176 342.204071,266.717651 346.113800,266.990021 
	C349.424530,267.220612 352.782745,267.225922 356.080627,266.914429 
	C357.106079,266.817566 358.002991,265.360046 358.958771,264.525452 
	C357.985291,263.706635 357.021301,262.188751 356.036896,262.175354 
	C344.061859,262.012573 332.083069,262.014679 320.107880,262.172760 
	C319.082550,262.186279 318.075928,263.618469 317.060638,264.391632 
	C318.136261,265.273773 319.135590,266.772644 320.302521,266.917053 
	C323.251648,267.282104 326.303009,267.292511 329.264374,266.980103 
	C334.039825,266.476257 335.316528,268.566711 335.124756,273.043762 
	C334.818939,280.183746 335.043335,287.346466 335.043457,295.499390 
M110.254044,275.709900 
	C106.238625,274.487885 102.223198,273.265869 97.931892,271.959900 
	C102.406555,282.250458 114.503212,286.959229 125.879852,283.201843 
	C137.739960,279.284790 143.899353,269.678650 141.373901,258.243500 
	C135.039352,271.062073 125.029099,276.959534 110.254044,275.709900 
M137.037079,235.669998 
	C137.457153,234.169312 137.877228,232.668610 138.294464,231.178040 
	C132.245026,230.959427 128.109558,234.505554 128.136749,239.932724 
	C128.162643,245.100235 132.818054,248.915848 138.281540,248.247467 
	C143.320206,247.631058 146.138962,243.451385 145.128250,238.023529 
	C141.998581,239.868454 139.004181,240.937347 137.037079,235.669998 
M100.059204,239.595749 
	C95.249016,240.059738 92.755341,242.415634 93.011848,246.455292 
	C93.265007,250.442337 95.945374,252.689301 99.491203,252.640015 
	C103.502975,252.584244 106.183571,250.178513 105.009972,246.239166 
	C103.478928,244.244980 101.947884,242.250809 100.059204,239.595749 
M384.899078,249.243561 
	C383.923950,250.855545 382.948822,252.467529 382.010071,254.019424 
	C386.074615,257.606415 386.780151,253.287964 388.305908,251.914658 
	C389.223938,251.088333 389.135651,249.143982 389.499573,247.702072 
	C388.083801,247.997192 386.667999,248.292297 384.899078,249.243561 
z"/>
<path fill="#060606" opacity="1.000000" stroke="none" 
	d="
M155.466568,298.941437 
	C157.312607,276.204895 159.158447,253.468338 161.004776,230.731827 
	C161.473892,224.954895 161.944595,219.178085 162.430115,213.210083 
	C165.331406,213.210083 167.953720,213.210083 171.259308,213.210083 
	C168.581024,246.933655 165.897873,280.718445 163.195374,314.746918 
	C133.874771,314.746918 104.814133,314.746918 75.354744,314.746918 
	C72.672447,281.035522 69.995659,247.393433 67.288345,213.367554 
	C70.086662,213.367554 72.815201,213.367554 76.106506,213.367554 
	C78.379761,241.483810 80.669258,269.800995 82.957664,298.996521 
	C83.219055,308.118500 82.965149,306.696777 90.118874,306.722290 
	C107.521187,306.784332 124.923889,306.742035 142.326431,306.741730 
	C146.439575,306.741669 150.552704,306.741730 154.963608,306.741730 
	C155.150879,303.837433 155.308731,301.389435 155.466568,298.941437 
z"/>
<path fill="#070707" opacity="1.000000" stroke="none" 
	d="
M134.000076,195.146622 
	C151.279633,195.146622 168.059174,195.146622 185.081299,195.146622 
	C185.081299,198.279877 185.081299,201.033463 185.081299,203.985123 
	C141.026855,203.985123 97.142998,203.985123 53.122971,203.985123 
	C53.122971,201.140305 53.122971,198.494949 53.122971,195.349091 
	C63.022552,195.349091 72.913544,195.349091 83.418861,195.349091 
	C82.792709,186.307922 82.202957,177.792374 81.593742,168.995804 
	C84.617210,168.995804 87.239975,168.995804 90.344582,168.995804 
	C91.037209,177.515045 91.733124,186.074692 92.470688,195.146622 
	C106.294800,195.146622 119.897430,195.146622 134.000076,195.146622 
z"/>
<path fill="#FACACB" opacity="1.000000" stroke="none" 
	d="
M400.707062,203.449997 
	C410.829346,218.988541 402.998260,238.600098 387.492737,243.288910 
	C378.455231,246.021835 366.975922,242.799454 361.622009,235.959045 
	C354.405396,226.738785 353.379944,215.578583 357.877808,206.527557 
	C365.272400,191.647552 387.019073,185.207153 400.707062,203.449997 
M365.917847,219.864655 
	C366.293945,229.095642 371.863495,235.045242 380.131622,235.048309 
	C389.651337,235.051849 395.320312,228.088776 395.001984,216.783340 
	C394.765045,208.369003 387.496277,200.696960 380.102203,201.056915 
	C371.258514,201.487427 364.796295,209.634247 365.917847,219.864655 
z"/>
<path fill="#FAC9CA" opacity="1.000000" stroke="none" 
	d="
M292.976013,211.000977 
	C292.974976,206.345673 293.180298,202.176727 292.913147,198.038300 
	C292.669861,194.269257 293.675812,192.610214 297.839447,192.867477 
	C303.635498,193.225632 309.469910,192.996643 315.287567,192.961441 
	C322.119141,192.920090 326.432953,196.560837 329.179352,202.433884 
	C332.101288,208.682404 331.679657,214.619461 327.369934,220.177765 
	C322.957977,225.867950 317.035950,227.306931 310.141174,227.063904 
	C302.199646,226.783966 303.050446,226.186478 302.988525,234.251144 
	C302.977051,235.747101 302.817657,237.265686 303.015533,238.734924 
	C303.565277,242.817413 302.035675,244.153564 297.822693,244.163589 
	C293.680664,244.173416 292.808319,242.675964 292.899597,238.926208 
	C293.121979,229.789139 292.974854,220.643097 292.976013,211.000977 
M320.587860,212.716599 
	C319.721924,209.382828 319.811859,204.142410 317.784180,203.125870 
	C313.967407,201.212357 308.853088,201.151917 304.461304,201.724808 
	C303.555267,201.843002 303.179199,208.087418 303.075470,211.523819 
	C303.012665,213.604034 303.258606,216.776779 304.555450,217.612396 
	C308.497223,220.152237 317.606140,217.350891 320.587860,212.716599 
z"/>
<path fill="#FACACB" opacity="1.000000" stroke="none" 
	d="
M249.689575,298.725830 
	C253.936172,287.681854 257.918457,276.949890 262.202148,266.339630 
	C262.783264,264.900269 264.806183,263.264343 266.282196,263.138916 
	C268.792664,262.925537 272.194550,261.543915 273.624847,265.313751 
	C279.674957,281.259857 285.678528,297.223663 292.011200,314.008087 
	C289.452972,314.008087 287.678802,313.798462 285.973480,314.051971 
	C282.486694,314.570251 280.678833,313.124268 280.047943,309.763672 
	C279.804871,308.468689 279.222137,307.241119 278.860229,305.964111 
	C277.823792,302.307068 275.765137,300.203705 271.651855,301.017395 
	C271.011475,301.144073 270.324585,301.035919 269.659210,301.035950 
	C259.616943,301.036255 259.497467,300.989319 255.788040,310.429810 
	C253.614410,315.961700 249.365555,313.516724 244.408112,313.942444 
	C246.279877,308.499146 247.899979,303.787628 249.689575,298.725830 
M265.512909,281.033020 
	C264.040314,285.134338 262.567749,289.235626 260.972504,293.678558 
	C265.985565,293.678558 270.182495,293.678558 275.136871,293.678558 
	C272.805115,287.217896 270.671875,281.307312 268.160645,274.349365 
	C267.100128,277.104156 266.477600,278.721222 265.512909,281.033020 
z"/>
<path fill="#FACACB" opacity="1.000000" stroke="none" 
	d="
M246.324738,225.277863 
	C250.053421,215.283340 253.711182,205.673355 257.110657,195.972839 
	C258.237610,192.756989 260.520691,192.950989 263.063477,192.931213 
	C265.647156,192.911148 267.787476,192.900146 268.954742,196.062347 
	C274.742401,211.741364 280.751709,227.338516 286.684662,242.969070 
	C278.917542,245.663193 276.544769,244.747162 274.329987,237.365494 
	C272.946930,232.755722 270.850067,230.032669 265.635406,231.002121 
	C264.510376,231.211273 263.292450,231.173157 262.152557,231.007034 
	C256.745697,230.218994 253.361603,231.717117 251.561493,237.577621 
	C249.261703,245.064850 248.591171,245.001328 239.642792,243.248810 
	C241.839737,237.302277 243.996429,231.464691 246.324738,225.277863 
M268.986115,220.482681 
	C267.161957,215.444519 265.337799,210.406372 263.023315,204.013992 
	C260.414062,211.336639 258.299316,217.271439 255.902145,223.998886 
	C260.346741,223.998886 264.094971,224.101349 267.823517,223.876785 
	C268.322296,223.846741 268.721527,222.162918 268.986115,220.482681 
z"/>
<path fill="#FACACB" opacity="1.000000" stroke="none" 
	d="
M207.226028,294.152069 
	C211.518021,303.393585 215.642197,306.353363 224.380112,304.791504 
	C228.118484,304.123260 231.412140,300.967194 235.554214,298.567017 
	C237.109329,299.472443 239.484940,300.855621 242.144379,302.404022 
	C238.852341,310.012512 232.627838,312.791260 225.567139,313.946411 
	C210.024765,316.489288 198.505569,306.546509 196.256668,290.595245 
	C194.617325,278.967468 202.825592,264.699554 217.653641,262.715454 
	C225.782288,261.627777 232.370224,263.779938 238.241623,268.916229 
	C239.984344,270.440765 242.334442,272.500549 239.374069,275.098969 
	C236.967209,277.211517 234.674744,279.517120 231.414200,275.930542 
	C227.209900,271.305817 221.848083,269.694794 216.116928,272.525085 
	C210.426880,275.335114 206.791901,279.952789 206.943542,286.764130 
	C206.995407,289.094391 207.049820,291.424622 207.226028,294.152069 
z"/>
<path fill="#FACACB" opacity="1.000000" stroke="none" 
	d="
M208.010361,192.956543 
	C218.118225,192.955917 227.727539,192.955917 237.188538,192.955917 
	C238.918777,201.288193 238.407501,201.910370 230.704712,201.938629 
	C220.115555,201.977463 221.064026,200.823334 221.052109,211.572205 
	C221.041580,221.065491 220.880249,230.563110 221.123795,240.050125 
	C221.230560,244.209457 218.881958,244.049149 216.036987,244.051300 
	C213.184525,244.053452 210.878876,244.193085 210.969711,240.039139 
	C211.206299,229.218658 210.787094,218.380539 211.161835,207.567902 
	C211.328964,202.745621 209.595963,201.298538 205.196152,201.915482 
	C204.216080,202.052917 203.200394,201.936691 202.201096,201.936615 
	C194.551804,201.936066 194.002701,201.231644 195.800049,192.957153 
	C199.605179,192.957153 203.558487,192.957153 208.010361,192.956543 
z"/>
<path fill="#F9C9CA" opacity="1.000000" stroke="none" 
	d="
M318.002808,177.996719 
	C341.762238,177.996735 365.022491,177.996735 388.664978,177.996735 
	C388.664978,181.071259 388.664978,183.627731 388.664978,186.720673 
	C387.019531,186.817657 385.420197,186.993011 383.820740,186.994034 
	C358.357391,187.010284 332.892975,186.886688 307.431641,187.112427 
	C302.889069,187.152695 301.574524,185.749557 301.960327,181.444702 
	C302.187164,178.913498 302.931915,177.871201 305.522095,177.960236 
	C309.511627,178.097382 313.509369,177.996582 318.002808,177.996719 
z"/>
<path fill="#F6CCCE" opacity="1.000000" stroke="none" 
	d="
M371.986084,277.958038 
	C372.003265,285.056976 372.003265,285.057159 378.818817,285.066498 
	C383.480133,285.072876 388.157684,284.863708 392.793060,285.213501 
	C394.212860,285.320618 395.517059,286.959808 396.874176,287.897400 
	C395.466949,288.597839 394.082520,289.842743 392.648529,289.902679 
	C386.998047,290.138824 381.329285,290.107513 375.672913,289.960510 
	C372.826721,289.886597 372.041016,291.015137 371.921204,293.761688 
	C371.254120,309.049927 371.187653,309.045990 386.147827,309.043030 
	C390.143280,309.042206 394.150696,308.884186 398.125885,309.169952 
	C399.128357,309.242004 400.027924,310.745941 400.974792,311.591858 
	C399.989990,312.394928 399.018127,313.876343 398.018341,313.895477 
	C388.699005,314.073853 379.372711,314.091309 370.054962,313.875580 
	C369.004822,313.851257 367.109039,312.108978 367.097992,311.146210 
	C366.913055,295.042236 366.966003,278.935516 366.966003,262.949005 
	C377.265808,262.949005 387.030060,262.860443 396.788818,263.051086 
	C398.145630,263.077606 399.475586,264.480499 400.817963,265.246216 
	C399.475433,265.842133 398.147186,266.911530 396.787872,266.952637 
	C390.633820,267.138702 384.450287,267.345612 378.317596,266.938660 
	C373.162659,266.596588 371.252991,268.500916 371.957764,273.487305 
	C372.142303,274.793121 371.986084,276.147095 371.986084,277.958038 
z"/>
<path fill="#EDC3C4" opacity="1.000000" stroke="none" 
	d="
M155.033325,298.972198 
	C155.308731,301.389435 155.150879,303.837433 154.963608,306.741730 
	C150.552704,306.741730 146.439575,306.741669 142.326431,306.741730 
	C124.923889,306.742035 107.521187,306.784332 90.118874,306.722290 
	C82.965149,306.696777 83.219055,308.118500 83.031876,299.447571 
	C106.938148,299.014496 130.769119,299.008728 155.033325,298.972198 
z"/>
<path fill="#FACACB" opacity="1.000000" stroke="none" 
	d="
M347.949158,195.344315 
	C347.975952,211.595825 347.975952,227.385315 347.975952,243.351349 
	C346.832031,243.621628 346.067749,243.925995 345.289642,243.966858 
	C337.970184,244.351028 337.969147,244.338028 337.969330,236.889160 
	C337.969635,224.067856 337.912872,211.245972 338.037903,198.425888 
	C338.055145,196.659698 339.024963,193.374863 339.469116,193.389343 
	C342.300079,193.481689 345.107330,194.301804 347.949158,195.344315 
z"/>
<path fill="#F8CED0" opacity="1.000000" stroke="none" 
	d="
M335.043518,294.999481 
	C335.043335,287.346466 334.818939,280.183746 335.124756,273.043762 
	C335.316528,268.566711 334.039825,266.476257 329.264374,266.980103 
	C326.303009,267.292511 323.251648,267.282104 320.302521,266.917053 
	C319.135590,266.772644 318.136261,265.273773 317.060638,264.391632 
	C318.075928,263.618469 319.082550,262.186279 320.107880,262.172760 
	C332.083069,262.014679 344.061859,262.012573 356.036896,262.175354 
	C357.021301,262.188751 357.985291,263.706635 358.958771,264.525452 
	C358.002991,265.360046 357.106079,266.817566 356.080627,266.914429 
	C352.782745,267.225922 349.424530,267.220612 346.113800,266.990021 
	C342.204071,266.717651 340.845093,268.236176 340.904297,272.167236 
	C341.089630,284.474426 340.998749,296.786316 340.939514,309.096039 
	C340.929291,311.219879 341.872040,314.065063 337.946686,314.010956 
	C333.989899,313.956360 335.141083,311.041016 335.081665,308.972656 
	C334.952759,304.484894 335.042877,299.990875 335.043518,294.999481 
z"/>
<path fill="#090909" opacity="1.000000" stroke="none" 
	d="
M110.677429,275.785400 
	C125.029099,276.959534 135.039352,271.062073 141.373901,258.243500 
	C143.899353,269.678650 137.739960,279.284790 125.879852,283.201843 
	C114.503212,286.959229 102.406555,282.250458 97.931892,271.959900 
	C102.223198,273.265869 106.238625,274.487885 110.677429,275.785400 
z"/>
<path fill="#090909" opacity="1.000000" stroke="none" 
	d="
M137.084747,236.064606 
	C139.004181,240.937347 141.998581,239.868454 145.128250,238.023529 
	C146.138962,243.451385 143.320206,247.631058 138.281540,248.247467 
	C132.818054,248.915848 128.162643,245.100235 128.136749,239.932724 
	C128.109558,234.505554 132.245026,230.959427 138.294464,231.178040 
	C137.877228,232.668610 137.457153,234.169312 137.084747,236.064606 
z"/>
<path fill="#090909" opacity="1.000000" stroke="none" 
	d="
M100.238022,239.926178 
	C101.947884,242.250809 103.478928,244.244980 105.009972,246.239166 
	C106.183571,250.178513 103.502975,252.584244 99.491203,252.640015 
	C95.945374,252.689301 93.265007,250.442337 93.011848,246.455292 
	C92.755341,242.415634 95.249016,240.059738 100.238022,239.926178 
z"/>
<path fill="#F8CED0" opacity="1.000000" stroke="none" 
	d="
M385.075653,248.915482 
	C386.667999,248.292297 388.083801,247.997192 389.499573,247.702072 
	C389.135651,249.143982 389.223938,251.088333 388.305908,251.914658 
	C386.780151,253.287964 386.074615,257.606415 382.010071,254.019424 
	C382.948822,252.467529 383.923950,250.855545 385.075653,248.915482 
z"/>
<path fill="none" opacity="1.000000" stroke="none" 
	d="
M365.870422,219.461563 
	C364.796295,209.634247 371.258514,201.487427 380.102203,201.056915 
	C387.496277,200.696960 394.765045,208.369003 395.001984,216.783340 
	C395.320312,228.088776 389.651337,235.051849 380.131622,235.048309 
	C371.863495,235.045242 366.293945,229.095642 365.870422,219.461563 
z"/>
<path fill="none" opacity="1.000000" stroke="none" 
	d="
M320.418518,213.080490 
	C317.606140,217.350891 308.497223,220.152237 304.555450,217.612396 
	C303.258606,216.776779 303.012665,213.604034 303.075470,211.523819 
	C303.179199,208.087418 303.555267,201.843002 304.461304,201.724808 
	C308.853088,201.151917 313.967407,201.212357 317.784180,203.125870 
	C319.811859,204.142410 319.721924,209.382828 320.418518,213.080490 
z"/>
<path fill="none" opacity="1.000000" stroke="none" 
	d="
M265.683990,280.685669 
	C266.477600,278.721222 267.100128,277.104156 268.160645,274.349365 
	C270.671875,281.307312 272.805115,287.217896 275.136871,293.678558 
	C270.182495,293.678558 265.985565,293.678558 260.972504,293.678558 
	C262.567749,289.235626 264.040314,285.134338 265.683990,280.685669 
z"/>
<path fill="none" opacity="1.000000" stroke="none" 
	d="
M269.076477,220.863800 
	C268.721527,222.162918 268.322296,223.846741 267.823517,223.876785 
	C264.094971,224.101349 260.346741,223.998886 255.902145,223.998886 
	C258.299316,217.271439 260.414062,211.336639 263.023315,204.013992 
	C265.337799,210.406372 267.161957,215.444519 269.076477,220.863800 
z"/>
</svg>